<?xml version="1.0" encoding="UTF-8" standalone="no"?>
<!-- Created with Inkscape (http://www.inkscape.org/) -->

<svg
   version="1.1"
   id="svg16061"
   width="880"
   height="880"
   viewBox="0 0 880 880"
   sodipodi:docname="lion-color-silhouette-45-pdv.svg"
   inkscape:version="1.2 (dc2aedaf03, 2022-05-15)"
   xmlns:inkscape="http://www.inkscape.org/namespaces/inkscape"
   xmlns:sodipodi="http://sodipodi.sourceforge.net/DTD/sodipodi-0.dtd"
   xmlns="http://www.w3.org/2000/svg"
   xmlns:svg="http://www.w3.org/2000/svg">
  <defs
     id="defs16065">
    <clipPath
       clipPathUnits="userSpaceOnUse"
       id="clipPath16077">
      <path
         d="M 0,660 H 660 V 0 H 0 Z"
         id="path16075" />
    </clipPath>
  </defs>
  <sodipodi:namedview
     id="namedview16063"
     pagecolor="#ffffff"
     bordercolor="#000000"
     borderopacity="0.25"
     inkscape:showpageshadow="2"
     inkscape:pageopacity="0.0"
     inkscape:pagecheckerboard="0"
     inkscape:deskcolor="#d1d1d1"
     showgrid="false"
     inkscape:zoom="0.95113636"
     inkscape:cx="441.05137"
     inkscape:cy="440.52569"
     inkscape:window-width="1920"
     inkscape:window-height="1017"
     inkscape:window-x="-8"
     inkscape:window-y="-8"
     inkscape:window-maximized="1"
     inkscape:current-layer="g16069">
    <inkscape:page
       x="0"
       y="0"
       id="page16067"
       width="880"
       height="880" />
  </sodipodi:namedview>
  <g
     id="g16069"
     inkscape:groupmode="layer"
     inkscape:label="Page 1"
     transform="matrix(1.3333333,0,0,-1.3333333,0,880)">
    <g
       id="g16071">
      <g
         id="g16073"
         clip-path="url(#clipPath16077)">
        <g
           id="g16079"
           transform="translate(507.9785,398.0864)">
          <path
             d="M 0,0 C 0.971,-0.096 1.871,-0.176 2.727,-0.07 3.575,0.041 4.36,0.329 4.976,0.834 6.236,1.822 6.828,3.549 6.506,5.451 7.121,4.696 7.397,3.636 7.257,2.602 7.134,1.562 6.567,0.561 5.725,-0.116 4.873,-0.787 3.775,-1.096 2.753,-1.014 1.728,-0.948 0.782,-0.563 0,0 m -11.761,-4.156 c -0.907,-0.756 -0.453,-7.564 2.421,-4.387 2.875,3.177 4.841,5.9 6.959,5.9 2.118,0 11.347,-3.933 12.708,10.288 2.296,1.63 3.811,2.797 4.813,3.617 0.965,-2.222 1.544,-4.714 1.574,-7.158 0.064,-2.846 -0.783,-5.708 -2.641,-7.905 -1.843,-2.204 -4.517,-3.7 -7.345,-4.597 -2.837,-0.917 -5.838,-1.37 -8.845,-1.557 3.013,-0.013 6.051,0.234 9.013,0.976 2.948,0.726 5.872,2.075 8.08,4.371 2.222,2.284 3.42,5.501 3.553,8.668 0.157,3.191 -0.272,5.889 -1.545,8.88 l -2.118,1.059 c -0.757,0 -14.715,-2.118 -20.121,-7.262 -2.556,-2.432 -5.597,-10.136 -6.506,-10.893 m -33.195,24.793 c -0.501,0.998 -1.149,1.766 -2.115,2.106 l -0.365,0.135 -0.463,0.091 c -0.313,0.055 -0.621,0.139 -0.95,0.155 -0.643,0.082 -1.31,0.091 -1.984,0.095 -2.721,-0.068 -5.562,-0.699 -8.478,-0.983 -1.457,-0.134 -2.934,-0.209 -4.396,-0.053 -1.461,0.155 -2.884,0.519 -4.212,1.075 1.397,-0.365 2.82,-0.518 4.231,-0.47 1.413,0.048 2.802,0.317 4.176,0.642 2.751,0.657 5.444,1.687 8.449,2.198 0.76,0.105 1.526,0.204 2.32,0.217 0.392,0.032 0.794,-0.008 1.195,-0.023 l 0.607,-0.035 0.678,-0.129 c 1.865,-0.345 3.457,-1.709 4.419,-3.151 0.996,-1.463 1.537,-3.022 1.964,-4.551 0.418,-1.536 0.654,-3.065 0.845,-4.56 l -4.834,-0.269 c 0.046,2.707 -0.116,5.442 -1.087,7.51 m 32.615,0.825 c 0.865,1.25 1.984,2.424 3.347,3.33 0.661,0.477 1.464,0.788 2.244,1.063 l 1.239,0.232 c 0.41,0.075 0.828,0.007 1.237,0.009 l 0.61,-0.029 0.526,-0.091 1.048,-0.187 c 0.692,-0.144 1.382,-0.288 2.06,-0.46 1.358,-0.33 2.693,-0.709 4.014,-1.076 1.323,-0.358 2.638,-0.723 3.967,-0.873 0.652,-0.03 1.34,-0.083 1.948,0.162 0.614,0.222 1.09,0.737 1.366,1.376 -0.175,-0.663 -0.587,-1.3 -1.24,-1.65 C 9.38,22.896 8.645,22.846 7.936,22.775 6.515,22.727 5.123,22.904 3.75,23.066 c -1.374,0.171 -2.731,0.349 -4.083,0.473 -0.675,0.069 -1.348,0.108 -2.018,0.148 l -1.001,0.03 -0.499,0.012 -0.419,-0.054 c -1.124,-0.05 -2.1,-0.56 -2.92,-1.313 -0.82,-0.751 -1.528,-1.706 -2.067,-2.816 -1.093,-2.158 -1.806,-4.78 -2.113,-7.154 l -4.755,0.909 c 0.431,1.554 0.937,2.866 1.552,4.242 0.619,1.351 1.348,2.67 2.232,3.919 M -60.412,-1.662 c 0.615,-0.505 1.401,-0.794 2.249,-0.904 0.855,-0.107 1.757,-0.026 2.727,0.069 -0.783,-0.563 -1.728,-0.947 -2.753,-1.013 -1.022,-0.082 -2.121,0.227 -2.971,0.898 -0.844,0.676 -1.409,1.678 -1.533,2.718 -0.141,1.034 0.136,2.094 0.751,2.849 -0.323,-1.902 0.27,-3.629 1.53,-4.617 m 0.099,12.887 c -2.722,1.452 -12.544,4.236 -12.544,4.236 -1.336,-1.946 -1.537,-4.822 -2.086,-7.071 -0.543,-2.245 -0.658,-4.614 -0.168,-6.87 0.477,-2.256 1.607,-4.348 3.173,-5.959 1.564,-1.627 3.49,-2.792 5.486,-3.701 -1.909,1.089 -3.686,2.414 -5.028,4.098 -1.349,1.672 -2.195,3.691 -2.439,5.768 -0.4,3.423 0.647,6.873 2.455,9.735 l 7.016,-5.379 c 0,0 -2.29,-4.337 1.211,-9.481 2.59,-3.807 10.892,-0.908 10.892,-0.908 l 5.673,-6.24 c 2.361,-0.904 0.681,6.24 0.681,6.24 0,0 -5.244,10.691 -14.322,15.532 M -177.596,4.002 c 0.639,0.885 1.437,1.594 2.163,2.383 0.803,0.682 1.567,1.439 2.418,2.041 1.753,1.286 3.242,2.273 4.836,3.365 1.559,1.078 3.096,2.191 4.578,3.329 3.012,2.252 5.706,4.751 7.737,7.65 1.027,1.457 1.81,3.081 2.585,4.825 0.783,1.725 1.523,3.556 2.379,5.334 1.736,3.557 3.821,6.922 6.27,9.966 -1.536,-3.602 -2.997,-7.155 -4.067,-10.825 -1.174,-3.593 -1.833,-7.545 -3.955,-11.261 -2.026,-3.734 -5.057,-6.648 -8.066,-9.236 -0.742,-0.687 -1.542,-1.267 -2.325,-1.879 -0.789,-0.598 -1.561,-1.239 -2.37,-1.795 -1.583,-1.125 -3.314,-2.296 -4.67,-3.324 -0.736,-0.51 -1.355,-1.127 -2.039,-1.684 -0.582,-0.637 -1.259,-1.21 -1.76,-1.9 -1.138,-1.291 -1.987,-2.762 -2.644,-4.31 -0.658,-1.549 -1.095,-3.211 -1.227,-4.947 -0.129,-1.733 -0.064,-3.519 0.163,-5.323 0.489,-3.607 1.627,-7.238 2.923,-10.854 0.616,-1.826 1.323,-3.638 1.917,-5.517 0.289,-0.944 0.578,-1.893 0.746,-2.889 0.083,-0.492 0.137,-1.005 0.093,-1.517 0.008,-0.507 -0.222,-1.03 -0.556,-1.374 0.468,0.889 0.095,1.84 -0.243,2.695 -0.349,0.873 -0.808,1.717 -1.273,2.557 l -2.857,5.081 c -1.831,3.459 -3.559,7.098 -4.465,11.131 -0.979,3.98 -1.008,8.468 0.503,12.61 0.739,2.06 1.845,3.998 3.206,5.668 m 84.908,-135.526 c 0.035,0.01 0.066,0.024 0.1,0.033 l 0.002,-0.011 c -0.034,-0.006 -0.067,-0.014 -0.102,-0.022 M -345.533,51.784 c 14.477,16.546 52.871,19.708 84.168,17.365 5.264,-0.607 12.35,-2.28 15.817,-3.909 2.166,-1.012 4.149,-2.395 5.916,-4.106 1.774,-1.707 3.328,-3.731 4.781,-5.9 2.911,-4.309 5.456,-9.334 9.524,-13.209 2.027,-1.917 4.437,-3.418 7.004,-4.368 2.568,-0.961 5.262,-1.401 7.933,-1.559 -2.64,0.458 -5.228,1.197 -7.568,2.39 -2.342,1.185 -4.396,2.823 -6.055,4.79 -3.334,3.975 -5.186,8.927 -7.711,13.801 -1.261,2.438 -2.712,4.881 -4.564,7.124 -0.566,0.691 -1.186,1.348 -1.824,1.987 5.34,-1.006 9.984,-2.164 13.633,-3.399 22.102,-7.481 79.047,-0.626 122.322,8.266 -0.185,-1.538 -0.219,-3.416 -0.115,-5.692 -0.435,-0.182 -0.807,-0.379 -1.088,-0.597 -2.63,-2.046 -0.604,-16.579 0.715,-26.123 -1,-0.447 -2.078,-0.897 -3.023,-1.291 -6.895,-2.872 -17.316,-7.212 -22.14,-16.323 l -2.121,-4.007 4.51,0.467 c 0.224,0.024 0.442,0.027 0.66,0.032 -2.239,-1.895 -4.208,-4.128 -5.631,-6.815 7.526,0.778 13.208,-6.456 14.7,-13.327 -7.075,-7.221 -15.63,-17.389 -15.221,-26.806 v -0.014 c -1.508,-3.049 -2.43,-6.141 -2.303,-9.072 4.034,-1.009 11.692,-0.913 14.138,-5.051 -0.475,-0.655 -0.973,-1.323 -1.482,-2.002 -3.921,-5.233 -8.696,-11.638 -8.505,-19.913 -2.395,-4.402 -4.041,-9.213 -3.313,-14.322 4.691,5.9 13.414,12.103 16.642,4.842 3.227,-7.262 -7.111,-35.25 1.765,-44.53 7.665,7.666 11.013,19.655 17.467,14.813 6.455,-4.84 6.335,-32.901 -5.767,-35.791 10.252,-2.324 25.692,1.16 29.851,12.224 1.235,0.561 2.364,1.162 3.359,1.821 0.382,-9.998 1.884,-29.155 6.699,-34.828 2.434,-2.872 2.017,-9.926 1.615,-16.75 -0.399,-6.752 -0.812,-13.735 0.978,-19.467 1.572,-5.035 14.23,-21.588 23.126,-22.069 6.401,-0.345 8.646,-3.906 9.128,-4.841 0.031,-0.579 -0.109,-2.065 -0.223,-3.278 -0.206,-2.203 -0.442,-4.832 -0.332,-7.302 -0.909,-0.799 -4.872,-6.266 -4.872,-6.266 l 0.258,-0.344 c -1.664,0.195 -3.644,0.736 -6.36,1.551 -0.427,0.129 -0.81,0.219 -1.185,0.303 0.316,0.888 0.554,1.795 0.7,2.701 0.383,2.674 0.172,5.369 -0.822,7.847 -0.516,1.227 -1.214,2.432 -2.337,3.342 l -0.426,0.328 -0.501,0.252 c -0.353,0.186 -0.636,0.264 -0.923,0.354 l -1.728,0.519 c -1.135,0.342 -2.267,0.661 -3.228,1.258 -0.985,0.571 -1.644,1.604 -1.946,2.766 0.096,-1.18 0.592,-2.422 1.579,-3.246 0.951,-0.842 2.086,-1.371 3.155,-1.907 1.047,-0.544 2.278,-1.003 2.796,-1.667 0.629,-0.717 1.022,-1.719 1.255,-2.741 0.451,-2.078 0.232,-4.306 -0.41,-6.277 -0.352,-1.016 -0.842,-1.949 -1.431,-2.787 -0.882,1.06 -1.743,1.969 -2.01,1.836 -0.465,-0.233 -3.157,-3.854 -4.383,-5.524 -2.055,-0.15 -5.114,0.03 -9.859,0.868 0.228,0.935 0.427,1.878 0.581,2.853 0.335,2.449 0.453,5.088 -0.56,7.641 -1.158,2.541 -3.271,4.113 -5.403,5.148 -1.066,0.531 -2.153,0.949 -3.182,1.434 -0.974,0.478 -2.126,1.099 -2.097,2.351 -0.124,-0.574 0.07,-1.201 0.453,-1.676 0.371,-0.492 0.864,-0.834 1.335,-1.197 0.966,-0.678 1.957,-1.275 2.863,-1.947 1.823,-1.281 3.29,-3.055 3.739,-4.891 0.39,-1.896 -0.023,-4.021 -0.686,-6.047 -0.044,-0.128 -0.097,-0.259 -0.143,-0.388 -0.735,0.845 -1.392,1.488 -1.619,1.375 -0.605,-0.303 -4.995,-6.36 -4.995,-6.36 l 0.152,-0.203 c -9.219,-0.808 -11.539,4.512 -13.039,7.973 -0.667,1.541 -0.416,6.291 -0.193,10.482 0.564,10.655 1.267,23.916 -8.001,25.633 -2.454,0.453 -2.501,0.463 -1.853,4.729 0.797,5.259 2.132,14.058 -6.992,25.375 -12.718,15.769 -33.615,45.373 -43.089,60.537 0.165,-0.016 0.257,-0.024 0.257,-0.024 L -165.1,-49.33 c -0.448,2.078 -0.698,3.374 -0.71,3.599 l -1.21,-0.012 c 0,-0.191 0.177,-1.171 0.502,-2.739 -0.263,-7.213 -0.925,-27.099 -0.77,-40.528 -1.116,0.285 -2.228,0.588 -3.324,0.931 -4.887,1.573 -9.577,3.67 -13.908,6.418 -4.338,2.739 -8.299,6.125 -11.9,9.993 -3.61,3.862 -6.861,8.187 -10.037,12.675 -3.178,4.484 -6.302,9.155 -9.854,13.591 -3.557,4.413 -7.545,8.675 -12.375,11.847 -4.786,3.213 -10.215,5.324 -15.75,6.344 -5.543,1.04 -11.157,1.1 -16.685,0.722 5.544,-0.124 11.08,-0.701 16.337,-2.194 5.256,-1.475 10.156,-3.941 14.301,-7.307 4.188,-3.329 7.514,-7.598 10.506,-12.091 2.99,-4.516 5.621,-9.335 8.425,-14.177 2.804,-4.839 5.795,-9.707 9.362,-14.301 2.709,-3.502 5.77,-6.826 9.17,-9.82 -8.235,3.992 -15.666,7.904 -20.077,10.226 -4.686,2.469 -6.798,3.574 -7.761,3.924 -2.18,0.791 -30.287,5.342 -49.644,0.578 -4.434,9.727 1.715,23.842 6.175,33.867 0.062,0.051 0.12,0.106 0.181,0.156 l 1.204,2.973 c 0.74,1.695 1.377,3.219 1.821,4.504 -0.73,-0.586 -7.485,-4.906 -8.16,-5.555 -8.712,-8.377 -12.934,-21.784 -15.409,-34.398 -0.664,-2.303 -0.993,-4.268 -1.056,-5.934 -0.292,-1.794 -0.56,-3.552 -0.803,-5.255 -0.052,-0.082 -0.106,-0.161 -0.155,-0.243 l 0.111,-0.064 c -0.248,-1.746 -0.481,-3.445 -0.698,-5.049 -0.69,-5.107 -1.289,-9.518 -2.037,-11.67 -1.293,-3.717 -7.51,-8.451 -13.523,-13.033 -7.729,-5.887 -15.72,-11.975 -18.695,-19.029 -11.504,-27.282 7.382,-47.908 7.579,-48.104 1.982,-1.982 11.176,-5.763 25.587,-4.123 3.121,0.361 5.701,-0.416 7.882,-2.363 3.916,-3.494 5.69,-10.143 6.2,-14.307 -0.99,1.223 -2.046,2.397 -2.345,2.246 -0.528,-0.263 -3.93,-4.898 -4.793,-6.084 -1.115,-0.158 -2.215,-0.297 -3.196,-0.414 0.145,0.369 0.276,0.746 0.377,1.139 0.593,2.389 0.197,4.83 -0.689,6.811 -0.885,2.003 -2.16,3.673 -3.541,5.167 -1.375,1.506 -2.932,2.776 -4.407,4.108 1.186,-1.611 2.444,-3.16 3.444,-4.84 1.01,-1.664 1.831,-3.428 2.203,-5.193 0.385,-1.766 0.234,-3.479 -0.447,-4.881 -0.494,-0.988 -1.274,-1.815 -2.152,-2.563 -0.932,1.256 -3.454,4.561 -3.946,4.315 -0.598,-0.299 -4.873,-6.192 -4.984,-6.344 -0.812,-0.027 -1.707,-0.019 -2.662,0.018 0.099,0.271 0.186,0.545 0.29,0.81 0.625,2.176 0.44,4.24 0.051,6.125 -0.409,1.891 -1.073,3.651 -1.898,5.315 -0.85,1.652 -1.779,3.24 -3.195,4.597 l -0.152,0.145 -0.155,0.008 -6.121,0.324 5.724,-1.334 c 0.913,-1.289 1.548,-2.908 2.024,-4.49 0.478,-1.635 0.781,-3.319 0.837,-4.944 0.057,-1.617 -0.159,-3.211 -0.769,-4.381 -0.142,-0.275 -0.308,-0.511 -0.485,-0.73 l 0.004,0.094 c 0,0 -3.687,5.09 -4.293,4.787 -0.419,-0.209 -2.652,-3.178 -3.987,-4.985 -1.624,0.264 -3.152,0.538 -4.473,0.801 l -0.225,0.035 c -0.051,0.006 -1.472,0.159 -3.676,0.457 0.204,0.498 0.381,0.996 0.527,1.502 0.538,1.883 0.744,3.848 0.464,5.787 -0.269,1.93 -1.155,3.813 -2.543,5.096 -1.391,1.289 -3.115,1.953 -4.805,2.301 1.574,-0.727 3.003,-1.754 3.889,-3.092 0.885,-1.338 1.179,-2.896 1.039,-4.41 -0.119,-1.328 -0.55,-2.629 -1.154,-3.816 -1.088,1.38 -2.415,2.931 -2.756,2.759 -0.394,-0.197 -2.391,-2.83 -3.737,-4.646 -5.257,1.014 -10.968,2.431 -14.656,4.275 -2.455,1.227 -2.95,2.092 -3.049,2.405 -0.248,0.785 0.604,2.359 1.503,4.025 0.945,1.748 2.12,3.922 2.805,6.523 1.065,4.049 -1.491,15.571 -5.752,34.034 -2.918,12.646 -7.327,31.753 -6.139,34.722 0.482,1.205 1.991,3.655 3.739,6.494 8.161,13.241 23.348,37.887 14.05,57.517 -9.53,20.12 -29.37,77.928 -7.023,103.467 m 224.169,-231.786 c 0.581,5.714 8.038,11.74 12.433,13.533 1.702,-2.207 3.31,-4.256 4.778,-6.076 7.786,-9.655 6.738,-16.563 5.971,-21.608 -0.273,-1.806 -0.57,-3.812 -0.147,-5.588 -3.714,3.45 -13.739,8.651 -14.056,6.116 0,0 -9.717,6.361 -8.979,13.623 m 98.448,-48.104 c 0.286,3.047 0.393,4.44 -0.086,5.518 -0.106,0.238 -0.316,0.664 -0.65,1.195 4.305,-0.297 4.485,-8.604 6.103,-12.307 0.045,-0.101 0.068,-0.193 0.1,-0.291 -0.726,-0.937 -1.502,-1.978 -2.089,-2.775 -1.138,-0.295 -2.484,-0.359 -3.49,-0.354 -0.275,1.297 -0.369,3.891 0.112,9.014 m -34.988,100.432 c -1.37,5.084 -2.375,8.677 -3.45,11.099 0.08,10.172 2.886,18.868 5.505,24.789 l 1.549,-0.039 c 0.27,-1.552 1.956,-5.584 9.449,-17.121 -2.144,-16.193 1.469,-35.377 6.327,-47.279 0.096,-1.488 0.288,-2.959 0.598,-4.397 -11.316,0.807 -16.477,19.959 -19.978,32.948 m 19.632,-21.492 c -2.923,10.615 -4.168,24.425 -2.231,36.73 5.958,-0.172 10.135,-0.246 13.041,-0.246 2.367,0 2.701,-4.219 2.622,-8.014 -1.186,-1.248 -2.357,-2.646 -3.495,-4.199 -4.788,-6.533 -8.802,-15.416 -9.937,-24.271 m 13.716,38.937 c -0.137,-0.002 -0.289,-0.004 -0.434,-0.006 -0.173,-0.002 -0.342,-0.004 -0.527,-0.006 -0.16,0 -0.332,-0.002 -0.501,-0.002 -0.188,0 -0.375,-0.002 -0.573,-0.002 h -0.542 c -0.208,0 -0.415,0 -0.632,0.002 -0.192,0 -0.392,0.002 -0.591,0.002 -0.216,0.002 -0.431,0.004 -0.655,0.006 -0.215,0 -0.437,0.004 -0.659,0.006 -0.125,0.002 -0.251,0.002 -0.378,0.004 -0.439,2.521 -1.218,7.178 -1.218,7.178 0,0 -2.297,-4.858 -3.453,-7.106 -0.233,0.004 -0.469,0.01 -0.704,0.014 -0.262,0.006 -0.524,0.012 -0.788,0.017 -0.246,0.004 -0.491,0.01 -0.738,0.016 -0.259,0.006 -0.517,0.014 -0.776,0.02 -0.271,0.005 -0.541,0.011 -0.812,0.019 -0.23,0.006 -0.459,0.012 -0.688,0.018 -0.288,0.007 -0.575,0.015 -0.862,0.023 -0.098,0.002 -0.195,0.006 -0.293,0.008 -0.298,0.01 -0.597,0.018 -0.893,0.025 -0.161,0.243 -0.32,0.491 -0.48,0.735 -0.167,0.256 -0.334,0.509 -0.5,0.765 -0.212,0.326 -0.422,0.649 -0.632,0.975 -0.243,0.379 -0.484,0.756 -0.725,1.133 -0.211,0.33 -0.42,0.656 -0.628,0.984 -0.237,0.375 -0.469,0.744 -0.7,1.115 -0.205,0.325 -0.41,0.651 -0.609,0.971 -0.231,0.371 -0.454,0.736 -0.679,1.102 -0.189,0.306 -0.38,0.617 -0.564,0.92 -0.228,0.375 -0.443,0.734 -0.662,1.097 -0.166,0.278 -0.337,0.561 -0.497,0.828 -0.223,0.377 -0.43,0.733 -0.64,1.092 -0.137,0.237 -0.284,0.484 -0.415,0.713 -0.22,0.381 -0.418,0.734 -0.618,1.092 -0.102,0.182 -0.215,0.379 -0.312,0.553 -0.285,0.515 -0.546,1.001 -0.779,1.447 -0.588,1.131 0.207,2.492 1.482,2.515 h 0.034 l 7.367,-4.257 c 5.343,-0.244 14.044,-0.858 19.742,0.15 2.852,0.506 6.207,2.656 8.216,2.555 0.599,-0.031 0.879,-0.444 0.972,-0.619 0.091,-0.176 0.274,-0.641 -0.04,-1.153 l -0.167,-0.269 -0.012,-0.319 c -0.097,-2.494 -1.679,-6.951 -8.666,-14.009 -0.087,-0.088 -0.165,-0.168 -0.233,-0.239 -0.111,-0.013 -0.25,-0.027 -0.414,-0.039 -0.058,-0.006 -0.136,-0.008 -0.202,-0.012 -0.117,-0.007 -0.229,-0.013 -0.366,-0.019 -0.086,-0.006 -0.188,-0.008 -0.281,-0.012 -0.141,-0.004 -0.276,-0.009 -0.433,-0.013 -0.108,-0.004 -0.232,-0.006 -0.347,-0.008 -0.163,-0.004 -0.32,-0.008 -0.495,-0.01 m 2.337,-7.996 c 0.518,1.771 1.123,3.863 1.834,6.328 0.014,0.01 0.14,0.137 0.32,0.316 3.648,3.686 6.234,7.057 7.755,10.088 -0.65,-4.4 -1.069,-8.689 -1.065,-12.41 -2.825,-0.31 -5.851,-1.808 -8.844,-4.322 m 11.636,-0.346 c 0.301,7.106 0.775,13.76 0.775,13.76 2.087,10.803 6.571,23.615 9.186,30.627 4.584,-7.447 10.229,-24.645 9.34,-34.088 -6.983,-5.885 -15.52,-16.592 -19.284,-25.603 -0.402,2.875 -0.272,9.251 -0.017,15.304 m 11.601,48.489 c 0.927,0.726 1.69,1.556 2.305,2.388 1.714,2.317 2.81,5.413 3.413,8.709 9.507,-14.057 15.411,-24.869 15.281,-45.14 -1.793,0.861 -4.585,1.291 -8.412,-0.709 -0.721,-0.377 -1.5,-0.879 -2.305,-1.444 0.336,11.727 -5.501,30.242 -10.282,36.196 m 6.277,16.481 c 0.104,3.767 -0.354,7.4 -1.234,10.086 15.371,-7.441 29.62,-34.575 27.308,-65.528 -1.063,-4.536 -3.023,-8.854 -6.582,-12.176 1.099,6.724 0.261,12.215 -2.399,15.262 0.496,22.933 -6.494,36.718 -17.093,52.356 m 27.007,-30.626 c -4.301,22.084 -15.949,39.698 -28.219,44.793 1.091,1.57 2.627,2.859 6.689,4.971 16.865,-8.772 27.646,-33.252 30.46,-49.051 -0.402,0.332 -0.804,0.682 -1.208,1.07 -0.955,0.92 -3.19,3.076 -5.541,2.014 -1.387,-0.627 -1.97,-1.879 -2.181,-3.797 m -17.594,51.702 c 0.735,0.347 1.507,0.708 2.356,1.097 3.844,1.764 5.947,4.354 6.978,7.655 10.604,-5.545 14.519,-11.919 16.934,-20.85 -10e-4,-0.586 0.006,-1.187 0.03,-1.82 0.495,-13.196 6.698,-35.153 15.061,-39.786 -0.673,-0.383 -1.752,-0.809 -3.257,-1.008 -1.542,-0.205 -4.924,-0.297 -8.751,1.795 -1.88,16.028 -11.69,42.855 -29.351,52.917 m 8.658,29.159 C 25.202,-2.279 25.032,-1.15 24.864,0 c 14.975,-4.919 22.442,-20.196 21.14,-34.321 -1.085,-0.903 -1.873,-2.302 -2.374,-4.206 -2.836,7.68 -7.49,14.093 -16.829,19.055 0.306,4.494 -0.499,9.904 -1.435,16.106 m -1.261,9.044 c -0.278,2.272 -0.532,4.612 -0.709,7.047 l -0.059,0.296 c -0.254,0.761 -3.625,10.683 -9.223,19.941 25.917,1.519 27.649,-10.73 32.575,-26.558 2.153,-6.921 4.376,-14.036 8.517,-19.653 0.115,-0.816 0.335,-1.589 0.665,-2.318 2.38,-5.268 9.403,-6.125 13.599,-6.637 0.105,-0.013 0.214,-0.026 0.323,-0.04 -0.076,-0.177 -0.155,-0.365 -0.24,-0.565 -1.812,-4.264 -5.58,-13.138 -10.195,-14.278 -1.471,-0.365 -3.034,0.15 -4.775,1.573 -2.217,1.81 -4.257,2.572 -6.089,2.303 0.69,15.106 -8.582,33.754 -24.389,38.889 M 55.436,-9.199 C 52.617,-4.434 50.836,1.22 48.999,7.123 43.993,23.209 38.804,39.823 10.661,38.128 9.16,40.149 7.548,42.025 5.833,43.643 10.147,46.608 27.554,57.2 45.776,43.124 l 0.149,-0.25 c 0.636,-1.078 1.898,-2.324 3.81,-4.211 7.62,-7.52 21.8,-21.518 10.397,-38.173 -2.513,-3.669 -4.067,-6.881 -4.696,-9.689 m -9.281,55.057 c -19.703,14.19 -40.74,3.354 -44.649,1.104 -1.979,1.174 -4.059,1.944 -6.231,2.15 10.547,14.957 18.978,24.231 26.573,27.464 0.583,-0.25 1.374,-0.388 2.39,-0.112 3.58,0.977 17.346,-1.498 25.673,-5.86 4.258,-2.23 0.361,-15.804 -3.756,-24.746 M 20.458,83.057 C 20.014,81.736 19.571,79.972 20.081,78.502 10.707,74.583 -0.211,64.185 -11.313,48.327 c -3.309,-1.137 -6.148,-3.298 -8.534,-5.873 1.589,9.905 6.821,37.581 17.693,52.543 1.665,0.268 3.29,1.141 4.841,2.633 2.359,2.268 5.916,3.17 10.566,2.685 6.143,-0.642 12.271,-3.559 15.169,-5.499 C 24.757,92.162 21.54,86.27 20.458,83.057 M -4.979,95.119 c -12.2,-18.092 -18.994,-52.375 -20.449,-60.557 -1.248,-2.256 -2.215,-4.395 -2.907,-6.088 -0.711,2.318 -1.803,5.462 -3.264,8.646 -0.181,1.83 -0.381,3.998 -0.363,4.993 0.361,19.968 -0.25,45.378 -7.904,55.596 6.886,-0.871 14.082,2.883 17.326,9.145 1.169,2.258 1.703,4.588 1.623,6.861 1.512,-1.971 2.987,-4.274 4.384,-6.454 3.62,-5.652 7.053,-11.009 11.554,-12.142 M -35.331,43.741 c -2.274,3.221 -5.032,5.782 -8.297,6.519 -0.557,0.126 -1.126,0.202 -1.692,0.279 -2.115,2.651 -3.702,7.382 -5.372,12.403 -3.045,9.152 -6.475,19.419 -14.618,22.88 -1.256,4.349 -4.318,9.347 -7.9,12.526 6.705,0.815 20.108,1.009 29.521,-0.108 6.434,-5.249 8.846,-23.409 8.358,-54.499 m -34.165,31.884 c 2.943,0.62 4.69,2.84 4.794,6.094 0.011,0.347 -0.004,0.712 -0.033,1.084 6.108,-3.718 9.084,-12.623 11.746,-20.625 1.496,-4.498 1.284,-8.608 2.6,-11.564 -2.479,-0.268 -4.957,-0.962 -7.332,-2.062 -1.013,5.79 -6.531,12.316 -13.345,18.683 -3.465,3.235 -6.993,5.624 -10.402,7.09 4.587,0.331 8.901,0.653 11.972,1.3 m -36.756,-43.771 c 0.84,0.359 1.662,0.705 2.446,1.031 5.54,2.308 9.202,3.833 9.202,7.185 0,1.413 -0.399,4.301 -0.951,8.298 -0.024,0.176 -0.049,0.361 -0.076,0.55 1.263,1.63 3.322,2.717 5.94,3.064 5.626,0.742 14.455,-2.021 21.501,-11.973 -2.321,-2.975 -4.55,-6.855 -6.387,-11.862 -9.646,4.288 -21.467,5.487 -31.675,3.707 m -15.105,-9.865 c 0.755,0.908 1.607,1.729 2.497,2.512 10.544,6.087 29.155,5.12 42.833,-0.869 -0.528,-1.89 -1.004,-3.907 -1.411,-6.079 -5.926,2.05 -20.038,0.302 -28.726,-3.9 -1.536,-0.744 -2.771,-1.592 -3.736,-2.529 -0.119,0.279 -0.241,0.557 -0.368,0.827 -2.063,4.333 -5.893,8.728 -11.089,10.038 m -4.512,-49.347 c -0.04,0.006 -0.084,0.012 -0.124,0.019 1.076,8.662 11.392,18.978 14.945,22.531 3.278,3.277 3.447,8.584 2.072,13.335 0.788,1.094 2.077,2.081 3.867,2.947 7.609,3.682 21.207,3.408 26.958,1.523 -0.108,-0.81 -0.221,-1.607 -0.31,-2.452 -0.097,-0.92 -0.707,-3.457 -1.413,-6.395 -0.159,-0.663 -0.317,-1.323 -0.473,-1.98 -13.747,1.69 -38.807,-14.749 -45.522,-29.528 m 2.505,-0.381 c 6.573,13.01 29.662,26.447 41.888,25.035 -1.155,-5.146 -2.051,-9.825 -2.311,-13.402 -12.038,-6.657 -20.826,-12.124 -27.593,-19.254 -1.226,5.515 -7.44,6.91 -11.984,7.621 m 9.594,-31.619 c -2.584,-0.125 -5.248,-1.652 -8.034,-3.252 -0.762,-0.438 -1.535,-0.88 -2.307,-1.295 1.236,3.984 2.54,7.471 3.955,10.571 1.101,1.696 2.308,3.313 3.472,4.867 2.211,2.951 4.194,5.603 5.067,8.286 6.564,7.118 15.342,12.031 28.108,19.072 0.024,-0.08 0.04,-0.173 0.067,-0.249 1.286,-3.698 4.943,-5.656 8.814,-7.729 0.833,-0.446 1.669,-0.9 2.494,-1.371 -11.884,-0.499 -24.247,-9.121 -32.888,-16.971 -2.893,-2.627 -7.434,-7.333 -8.748,-11.929 m 2.423,-0.348 c 0.976,2.956 3.793,6.707 7.953,10.485 9.227,8.384 24.449,16.282 36.007,15.45 1.302,-1.192 2.424,-2.589 3.233,-4.317 -1.127,-1.266 -2.091,-2.537 -2.95,-3.808 -8,0.052 -22.956,-8.849 -32.25,-17.66 -2.834,-2.687 -5.239,-5.489 -7.204,-8.343 -0.044,1.553 -0.259,2.929 -0.762,4.061 -0.948,2.133 -2.304,3.518 -4.027,4.132 m 10.141,-34.775 c -1.507,-1.4 -2.929,-3.154 -4.333,-4.896 -1.003,-1.247 -2.096,-2.6 -3.291,-3.952 -2.511,5.457 -0.756,15 0.692,22.872 0.493,2.675 0.945,5.14 1.244,7.373 2.129,4.012 5.226,7.998 9.206,11.771 8.713,8.262 20.426,14.272 27.8,14.36 -1.284,-3.043 -1.863,-6.016 -1.891,-8.824 -15.277,-8.039 -25.871,-22.011 -29.427,-38.704 m 16.542,-9.195 c -1.363,4.576 -3.351,8.394 -5.663,10.131 -3.01,2.256 -5.562,2.308 -7.858,1.213 3.871,14.201 13.437,24.674 26.892,31.873 0.613,-2.728 1.766,-5.194 3.317,-7.281 -8.421,-9.151 -13.82,-23.772 -16.688,-35.936 m 51.72,8.916 -1.816,0.045 0.416,2.662 1.192,-0.029 z m -0.951,25.511 -0.367,3.56 h 2.42 l -0.466,-3.56 z m 3.099,-25.593 -1.816,0.045 0.416,2.66 1.191,-0.03 z m -0.235,25.553 -0.366,3.56 h 2.421 l -0.467,-3.56 z m 2.368,-25.606 -1.816,0.045 0.418,2.66 1.19,-0.029 z M -39.536,8.401 c -0.693,-5.147 -1.597,-10.266 -2.794,-15.306 -0.594,-2.52 -1.268,-5.021 -2.094,-7.461 -0.828,-2.43 -1.753,-4.853 -3.06,-6.993 l -0.007,-0.011 -0.027,-0.052 c -0.899,-1.786 -1.807,-3.569 -2.875,-5.245 -1.056,-1.68 -2.188,-3.311 -3.478,-4.784 -1.29,-1.464 -2.708,-2.818 -4.298,-3.819 -1.24,-0.785 -2.597,-1.344 -3.932,-1.505 -2.498,5.062 -7.201,7.583 -11.384,9.822 -3.593,1.924 -6.696,3.585 -7.672,6.391 -1.282,3.686 1.918,16.996 3.637,24.146 0.786,3.268 1.353,5.63 1.466,6.707 2.143,20.306 9.633,29.614 15.539,33.847 5.025,3.601 10.986,4.972 16.354,3.761 9.283,-2.095 14.438,-23.437 14.489,-23.652 l 1.023,-4.317 1.311,4.238 c 0.073,0.238 7.507,23.677 22.197,22.562 C 9.237,45.632 20.18,14.751 20.994,12.393 21.43,6.496 22.249,1.067 22.973,-3.727 24.947,-16.817 26.252,-25.465 18.054,-29.229 6.248,-34.647 5.058,-36.102 2.749,-40.313 l -0.555,-1.009 0.469,-0.625 c 0.687,-0.916 1.269,-2.498 1.675,-4.456 -0.028,0.008 -0.053,0.007 -0.081,0.016 -0.462,0.185 -0.947,0.428 -1.411,0.782 -0.936,0.677 -1.809,1.568 -2.623,2.511 -1.633,1.901 -3.055,4.051 -4.398,6.238 -1.334,2.199 -2.576,4.465 -3.748,6.769 -0.586,1.152 -1.157,2.314 -1.706,3.483 -0.261,0.566 -0.571,1.205 -0.787,1.759 -0.024,0.052 -0.04,0.11 -0.063,0.162 -0.169,0.621 -0.367,1.231 -0.608,1.823 -1.338,4.879 -2.162,9.972 -3.005,15.016 -0.829,5.132 -1.568,10.281 -2.247,15.438 0.479,-5.18 1.018,-10.356 1.648,-15.523 0.49,-3.829 0.958,-7.652 1.659,-11.466 -0.765,1.031 -1.652,1.964 -2.701,2.683 0.892,-1.794 1.604,-3.535 2.178,-5.311 0.567,-1.774 0.954,-3.57 1.142,-5.362 0.177,-1.794 0.143,-3.59 -0.221,-5.362 -0.332,-1.63 -0.952,-3.22 -1.775,-4.847 -0.313,0.28 -0.743,0.525 -1.324,0.723 -0.793,0.234 -6.13,2.554 -13.314,2.811 -6.642,0.238 -14.608,-1.012 -17.343,-1.791 -0.642,1.528 -0.711,3.074 -0.644,4.622 0.103,1.763 0.475,3.512 0.958,5.226 0.497,1.712 1.109,3.4 1.871,5.043 0.769,1.643 1.659,3.234 2.753,4.853 -1.274,-0.621 -2.383,-1.542 -3.338,-2.605 0.511,1.332 0.942,2.686 1.341,4.043 0.73,2.515 1.299,5.063 1.785,7.621 0.98,5.116 1.661,10.276 2.128,15.449 M 4.899,-53.824 h 0.017 c 0,-0.026 -0.001,-0.051 -0.002,-0.077 -10e-4,0.026 -0.018,0.052 -0.015,0.077 m -29.064,-18.085 c -0.202,-0.42 -0.73,5.56 -0.73,5.56 0,0 2.595,1.189 3.252,-0.647 0,0 -2.321,-4.493 -2.522,-4.913 m 3.505,-7.824 c -0.303,-0.101 0,12.328 0,13.034 0,0.706 4.526,0.532 4.935,-1.284 0,0 -4.632,-11.648 -4.935,-11.75 m 0.993,-13.43 c -0.341,-1.353 -5.358,-1.466 -5.346,-0.937 0.014,0.529 5.474,6.162 5.7,6.082 0.224,-0.082 -0.354,-5.145 -0.354,-5.145 m -11.496,31.155 -0.01,6.495 c 3.576,7.198 5.197,13.871 8.379,14.595 3.329,0.756 3.43,0.025 3.733,-1.336 0.302,-1.362 0.1,-3.459 0.1,-3.459 0,0 7.132,5.345 4.701,7.968 1.5,1.095 2.706,2.651 3.424,4.442 0.529,1.302 0.799,2.7 0.867,4.104 0.23,-0.515 0.449,-1.035 0.685,-1.548 1.095,-2.376 2.265,-4.722 3.54,-7.023 1.29,-2.293 2.657,-4.557 4.334,-6.673 0.846,-1.054 1.757,-2.08 2.893,-2.977 0.558,-0.455 1.218,-0.849 1.956,-1.164 0.395,-0.149 0.83,-0.257 1.285,-0.305 0.096,-0.844 0.163,-1.721 0.193,-2.628 -0.263,0.11 -0.522,0.211 -0.781,0.303 -0.979,0.352 -1.947,0.638 -2.919,0.908 -1.943,0.529 -3.887,0.981 -5.834,1.404 -3.897,0.839 -7.804,1.571 -11.722,2.235 3.829,-1.057 7.639,-2.181 11.405,-3.404 1.882,-0.613 3.753,-1.255 5.583,-1.959 0.911,-0.356 1.814,-0.728 2.667,-1.137 0.43,-0.202 0.837,-0.424 1.201,-0.649 0.138,-0.097 0.304,-0.205 0.391,-0.291 -0.078,-1.932 -0.315,-3.896 -0.759,-5.764 l -10.27,3.363 -5.897,1.899 c -1.974,0.611 -3.93,1.281 -5.934,1.789 1.939,-0.699 3.82,-1.556 5.722,-2.356 l 5.679,-2.464 10.059,-4.421 C 2.97,-63.608 2.274,-65.042 1.377,-66.255 1.119,-66.604 0.838,-66.903 0.556,-67.202 l -21.332,8.659 19.341,-10.24 c -1.835,-1.057 -4.03,-1.36 -6.567,-0.907 -3.127,1.535 -6.043,3.73 -9.093,4.565 -4.543,1.623 -9.24,2.909 -14.068,3.117 m 3.89,-28.998 c 0.143,-0.321 1.642,-3.399 1.642,-3.399 -0.525,-1.365 -2.451,-0.426 -2.451,-0.426 0,0 0.665,4.143 0.809,3.825 m -0.913,21.717 -0.367,3.56 h 2.421 l -0.467,-3.56 z M -36.477,-92 l 1.191,-0.03 0.209,-2.677 -1.816,0.044 z m -0.629,26.311 h 2.421 l -0.467,-3.56 h -1.588 z m -20.791,-4.591 c -1.354,-0.933 -3.643,-0.275 -5.791,1.49 l 18.873,12.291 -20.57,-10.63 c -1.157,1.366 -2.285,3.261 -3.039,5.559 l 20.416,10.263 -21.015,-7.916 c -0.451,2.418 -0.459,5.16 0.279,8.12 l 0.034,-0.147 18.281,5.537 -17.55,-2.963 c 1.145,3.03 3.087,6.241 6.133,9.53 l 0.026,0.027 c 1.812,0.286 3.447,1.088 4.846,2.055 1.783,1.239 3.247,2.783 4.555,4.403 1.306,1.629 2.409,3.381 3.425,5.166 0.071,0.125 0.129,0.255 0.199,0.38 -0.234,-1.376 -0.302,-2.788 -0.119,-4.194 0.208,-1.69 0.881,-3.508 2.146,-4.655 -0.302,-0.1 -0.511,-0.191 -0.584,-0.265 -1.211,-2.118 3.278,-7.11 3.278,-7.11 0,0 0.806,2.723 2.925,2.421 1.424,-0.204 5.215,-5.197 7.548,-9.78 l 0.018,-11.31 c -0.105,0 -3.681,-0.6 -3.784,-0.62 -14.092,-2.647 -18.224,-6.064 -20.53,-7.652 m 10.308,2.165 c 0.409,1.816 4.937,1.991 4.937,1.285 0,-0.706 0.302,-13.135 0,-13.036 -0.303,0.102 -4.937,11.751 -4.937,11.751 m 7.044,-25.653 c -0.013,-0.529 -4.567,-0.373 -4.841,0.996 0,0 0.881,4.936 1.11,5.006 0.228,0.068 3.745,-5.473 3.731,-6.002 m 2.51,3.051 c 0.159,0.312 0.605,-3.871 0.605,-3.871 0,0 -1.97,-0.846 -2.427,0.545 0,0 1.664,3.015 1.822,3.326 m -3.634,23.589 c 0.655,1.837 3.253,0.647 3.253,0.647 0,0 -0.53,-5.98 -0.731,-5.561 -0.203,0.42 -2.522,4.914 -2.522,4.914 m -27.941,-47.249 0.547,-1.639 c 0.688,-2.065 0.222,-3.248 -0.188,-3.959 -1.871,-3.246 -8.487,-5.457 -15.357,-7.123 0.516,1.158 0.953,2.51 1.28,4.084 0.838,4.043 0.726,8.969 -0.05,13.678 2.485,12.591 8.401,28.73 18.22,38.599 1.91,-1.555 3.945,-2.392 5.765,-2.394 0.063,0 0.125,0.011 0.188,0.013 l 1.527,-14.027 c -2.471,-5.916 -5.488,-15.215 -6.022,-26.084 -0.329,0.238 -0.68,0.424 -1.058,0.551 -1.172,0.4 -2.41,0.168 -3.479,-0.651 z m -3.11,179.843 c 6.148,-5.743 10.825,-13.209 11.864,-18.67 -0.357,-0.231 -0.721,-0.441 -1.07,-0.691 -1.182,-0.847 -2.424,-1.882 -3.675,-3.143 -7.734,11.022 -18.036,12.259 -24.407,11.42 -2.387,-0.317 -4.442,-1.192 -6.028,-2.477 -0.95,7.15 -2.207,17.986 -1,20.225 l 0.009,0.005 c 2.149,0.461 4.262,0.926 6.324,1.394 0.342,0.04 0.689,0.079 1.041,0.117 l 0.004,-0.065 c 4.921,0.287 11.099,-2.66 16.938,-8.115 m -398.099,-18.13 c 0.112,-3.711 0.505,-7.417 1.236,-11.055 1.488,-7.269 4.151,-14.27 7.765,-20.707 0.861,-1.637 1.888,-3.167 2.849,-4.743 1.054,-1.507 2.043,-3.073 3.188,-4.512 l 1.685,-2.199 c 0.632,-0.743 1.231,-1.506 1.913,-2.218 1.308,-1.462 2.769,-2.822 4.305,-4.11 3.091,-2.557 6.652,-4.699 10.488,-6.168 3.829,-1.498 7.891,-2.302 11.888,-2.562 8.038,-0.506 15.706,1.081 22.783,3.394 7.098,2.345 13.72,5.467 20.048,8.91 5.867,3.207 16.309,6.091 22.463,9.631 1.611,-25.363 11.365,-52.176 17.322,-64.752 8.175,-17.255 -6.117,-40.447 -13.795,-52.906 -2.019,-3.275 -3.477,-5.644 -4.114,-7.234 -1.578,-3.945 0.705,-15.022 5.918,-37.611 2.941,-12.746 6.603,-28.614 5.786,-31.711 -0.536,-2.041 -1.472,-3.776 -2.381,-5.453 -1.402,-2.594 -2.726,-5.045 -1.861,-7.787 0.647,-2.045 2.395,-3.723 5.501,-5.276 4.708,-2.353 12.039,-4.035 18.165,-5.125 l 6.024,-8.025 0.355,7.017 c 2.307,-0.32 3.943,-0.504 4.414,-0.552 0.878,-0.174 3.68,-0.713 7.164,-1.217 l 5.768,-7.684 0.352,6.953 c 1.93,-0.173 3.864,-0.287 5.65,-0.287 1.687,0 3.224,0.11 4.516,0.35 l 5.266,-7.016 0.419,8.27 c 1.403,0.205 2.946,0.388 4.474,0.568 2.393,0.283 4.687,0.557 6.763,0.91 l 5.489,-7.312 0.453,8.957 c 2.032,0.957 3.269,2.303 3.269,4.342 0,3.398 -1.466,14.41 -7.983,20.226 -3.226,2.877 -7.155,4.069 -11.655,3.561 -13.371,-1.53 -20.75,2.008 -21.65,2.767 -0.137,0.141 -16.742,18.489 -6.506,42.77 2.473,5.865 10.279,11.81 17.167,17.056 7.185,5.475 13.392,10.202 15.162,15.295 0.909,2.612 1.506,7.024 2.262,12.612 0.001,0.008 0.003,0.015 0.004,0.023 7.544,0.65 11.398,-11.441 17.234,-19.101 6.455,-8.471 -19.897,-24.569 -11.296,-35.502 11.901,-15.129 16.137,-35.502 16.137,-35.502 0,0 5.648,-17.348 16.139,-19.768 10.488,-2.422 46.797,-0.404 48.006,2.018 0.259,0.515 0.221,1.57 -0.031,2.898 1.757,0.914 4.772,2.951 4.772,2.951 0,0 -1.084,2.032 -2.463,4.506 l 2.888,2.748 -9.654,11.153 c 0,0 -17.407,-4.086 -27.538,-4.086 -4.189,2.017 -15.176,35.502 -13.965,41.15 1.211,5.648 18.155,22.189 21.785,25.527 2.989,2.746 -0.916,24.114 -2.395,31.61 0.132,-0.035 0.267,-0.075 0.356,-0.108 0.696,-0.252 3.837,-1.904 7.161,-3.656 18.543,-9.764 36.703,-18.731 49.781,-22.465 2.696,-2.769 10.361,-4.422 15.972,-5.291 3.924,-6.607 10.819,-16.937 18.413,-27.795 0.288,-4.849 -0.907,-12.172 -7.39,-21.22 -12.104,-16.889 -10.086,-40.512 -11.297,-41.034 -1.21,-0.519 16.44,-14.236 16.44,-14.236 0,0 34.393,-3.631 36.41,-3.228 1.978,0.396 -1.075,11.001 -0.055,13.552 0.928,-1.006 2.391,-1.797 4.657,-2.215 5.091,-0.943 4.488,-12.314 4.049,-20.617 -0.299,-5.631 -0.534,-10.078 0.586,-12.664 2.346,-5.412 6.242,-10.994 15.567,-10.994 1.583,0 3.327,0.164 5.242,0.514 l 5.145,-6.856 0.419,8.266 c 0.092,0.029 0.18,0.053 0.272,0.082 6.029,-1.033 9.835,-1.09 12.471,-0.621 l 5.799,-7.727 0.543,10.703 c 0.395,0.032 0.935,-0.08 1.896,-0.369 4.836,-1.451 8.067,-2.203 11.3,-1.64 l 4.82,-6.422 0.426,8.435 c 0.782,0.448 1.598,0.967 2.47,1.569 l 4.032,2.785 10.085,-6.129 -3.888,9.578 c 0,0 -0.201,0.277 -0.508,0.687 0.193,1.817 -3.142,4.374 -5.651,15.444 -1.085,4.789 -6.004,3.476 -9.268,2.222 -2.078,1.657 -5.189,3.174 -9.763,3.422 -6.01,0.325 -17.437,14.42 -18.766,18.676 -1.526,4.889 -1.14,11.422 -0.767,17.74 0.284,4.811 0.552,9.459 -0.035,13.358 3.833,-4.998 9.064,-8.08 16.43,-7.121 -0.753,2.191 -1.167,4.527 -1.304,6.933 1.083,-0.252 2.213,-0.398 3.407,-0.398 0.974,0 1.983,0.088 3.036,0.273 l 2.795,0.489 -0.924,2.683 c -3.515,10.209 0.935,23.623 6.878,32.588 2.986,2.582 6.044,4.1 8.805,4.027 -5.97,-12.591 8.52,-30.041 8.52,-20.158 0,0.158 0.023,0.328 0.028,0.488 0.596,0.958 0.611,2.264 0.611,3.245 0,0.601 0.08,1.263 0.219,1.964 2.507,9.194 10.161,19.93 17.451,23.741 8.875,4.64 11.982,-3.87 7.545,-18.393 3.407,1.703 6.011,3.922 8.007,6.447 12.564,7.272 13.96,21.684 13.803,32.174 7.911,-3.656 17.714,1.426 21.416,5.707 1.855,1.153 2.896,2.666 2.879,4.311 -0.008,0.781 -0.308,2.715 -2.928,3.781 -5.894,2.398 -12.416,22.833 -12.884,35.946 0.16,-0.123 0.32,-0.244 0.487,-0.381 6.671,-5.446 11.738,0.031 15.164,6.119 5.223,3.336 8.579,11.204 10.515,15.759 0.419,0.987 0.893,2.106 1.073,2.388 0.554,0.82 0.651,1.833 0.255,2.702 -0.758,1.661 -2.46,1.869 -5.28,2.214 -3.186,0.388 -8.516,1.038 -9.775,3.825 -1.003,2.219 0.362,6.242 3.845,11.328 13.688,19.992 -3.606,37.064 -10.99,44.353 -0.844,0.833 -1.705,1.683 -2.307,2.332 2.905,6.453 10.553,25.62 1.328,30.453 -7.611,3.987 -20.662,7.031 -27.19,6.554 1.101,3.364 5.126,9.563 7.099,9.892 1.677,0.28 2.444,1.442 2.602,2.436 0.138,0.859 0.502,3.142 -6.648,6.878 -8.719,4.557 -21.465,7.414 -28.69,0.466 -1.571,-1.51 -2.51,-1.398 -2.824,-1.362 -2.688,0.317 -6.022,5.523 -8.964,10.115 -4.038,6.305 -8.213,12.823 -14.016,13.683 l -7.246,1.073 0.899,-0.899 c -0.086,0.019 -0.171,0.041 -0.257,0.054 4.286,-4.287 4.589,-12.039 2.526,-18.944 -2.471,-1.81 -5.703,-2.868 -9.178,-2.272 -9.818,1.693 -35.737,2.107 -40.204,-1.145 -0.953,-0.693 -1.251,-1.529 -1.334,-2.108 l -0.3,-2.105 2.049,-0.57 c 1.753,-0.487 3.825,-2.344 5.627,-4.681 -5.538,-0.371 -9.547,-1.096 -9.701,-2.178 2.388,-0.663 4.991,-2.988 7.141,-5.862 -44.468,-14.372 -122.976,-24.497 -146.475,-16.542 -8.837,2.991 -24.563,5.935 -42.721,6.992 -0.01,0.001 -0.021,0.002 -0.03,0.003 l 0.001,-0.002 c -6.833,0.397 -14.009,0.528 -21.293,0.292 -21.122,-0.689 -49.059,-4.663 -62.207,-19.689 -4.279,-4.891 -7.13,-10.832 -8.903,-17.392 -5.297,-4.147 -10.37,-8.221 -15.553,-12.105 -5.381,-4.041 -10.832,-7.881 -16.431,-11.338 -5.597,-3.446 -11.35,-6.513 -17.233,-8.808 -5.87,-2.285 -11.909,-3.775 -17.68,-3.71 -5.767,0.042 -11.177,1.735 -15.798,5.183 -1.148,0.866 -2.275,1.793 -3.321,2.849 -0.543,0.5 -1.034,1.074 -1.552,1.613 l -1.551,1.828 c -1.07,1.203 -1.981,2.518 -2.973,3.782 -0.893,1.323 -1.867,2.608 -2.675,3.985 -3.414,5.414 -6.001,11.321 -7.596,17.485 -0.783,3.085 -1.275,6.232 -1.536,9.397 -0.252,3.169 -0.141,6.352 0.202,9.507 0.329,3.162 1.058,6.27 2.034,9.297 0.456,1.529 1.091,2.99 1.684,4.473 0.694,1.436 1.352,2.896 2.177,4.271 1.583,2.78 3.416,5.446 5.556,7.869 2.112,2.445 4.441,4.733 7.008,6.757 5.05,4.147 10.955,7.345 17.091,9.83 6.184,2.413 12.77,3.957 19.456,4.774 6.687,0.82 13.498,0.932 20.242,0.307 40.379,-8.694 26.724,-27.035 21.301,-32.227 -0.142,-0.045 -0.277,-0.101 -0.42,-0.141 -0.807,-0.248 -1.641,-0.441 -2.45,-0.649 l -4.87,-1.131 c -3.201,-0.752 -6.334,-1.488 -9.385,-2.268 -6.101,-1.54 -11.929,-3.199 -17.502,-4.586 -5.569,-1.364 -10.829,-2.488 -15.479,-2.606 -2.337,-0.029 -4.585,0.132 -7.075,1.153 -1.256,0.494 -2.523,1.244 -3.832,2.199 -1.302,0.962 -2.595,2.141 -4.02,3.467 -0.532,-1.858 -0.682,-3.795 -0.482,-5.779 0.19,-1.987 0.785,-4.009 1.781,-5.941 1.989,-3.871 5.726,-7.077 9.755,-8.858 4.046,-1.841 8.277,-2.52 12.271,-2.611 4.015,-0.086 7.834,0.465 11.473,1.363 7.254,1.853 13.794,5.1 19.51,9.477 2.857,2.189 5.493,4.707 7.836,7.557 0.278,0.347 0.536,0.717 0.806,1.074 0.03,0.028 0.057,0.049 0.09,0.082 11.595,9.961 13.534,18.464 13.974,22.124 0.239,1.806 -0.106,3.678 -0.842,5.343 -0.725,1.68 -1.852,3.135 -3.106,4.41 -2.539,2.542 -5.612,4.407 -8.782,5.926 -6.384,3.011 -13.259,4.707 -20.184,5.724 -6.939,0.997 -13.987,1.239 -21.011,0.736 -7.021,-0.502 -14.039,-1.763 -20.822,-4.022 -6.744,-2.34 -13.272,-5.453 -19.117,-9.763 -2.953,-2.101 -5.695,-4.524 -8.221,-7.167 -2.555,-2.619 -4.807,-5.549 -6.79,-8.655 -1.024,-1.537 -1.877,-3.176 -2.757,-4.804 -0.781,-1.675 -1.595,-3.342 -2.221,-5.088 -1.315,-3.462 -2.344,-7.056 -2.922,-10.727 -0.592,-3.664 -0.902,-7.387 -0.798,-11.102"
             style="fill:#000000;fill-opacity:1;fill-rule:nonzero;stroke:none"
             id="path16081" />
        </g>
        <g
           id="g16083"
           transform="translate(197.1689,435.0854)">
          <path
             d="M 0,0 0.049,-0.023 Z"
             style="fill:#000000;fill-opacity:1;fill-rule:nonzero;stroke:none"
             id="path16085" />
        </g>
      </g>
    </g>
  </g>
</svg>
